# xmcd CD database file
#
# Track frame offsets:
#	182
#	13507
#	26780
#	47845
#	64120
#	77970
#	89852
#	101595
#	118882
#	135260
#	150095
#	162362
#	174067
#	189780
#	205572
#
# Disc length: 2999 seconds
#
# Revision: 1
# Processed by: cddbd v1.4PL0 Copyright (c) Steve Scherf et al.
# Submitted via: Feurio! 1.62 - http://www.feurio.com
#
DISCID=b50bb50f
DTITLE=OKra All-Stars - OKra All-Stars
DYEAR=1993
DGENRE=Normal Records
TTITLE0=Big Mistake
TTITLE1=Falling Fast
TTITLE2=She's Taken All My Toys Away
TTITLE3=Let's Build A Bridge
TTITLE4=14 Karat Mind
TTITLE5=I Wouldn't Live In New York City
TTITLE6=Don't Laugh
TTITLE7=New Orleans
TTITLE8=Conqueror's Song
TTITLE9=Blue Sides (To Every Story)
TTITLE10=Shade Tree Fix-It Man
TTITLE11=The Game Of Love
TTITLE12=One Of These Days
TTITLE13=Wild And Blue
TTITLE14=Purple Rain
EXTD=OKCD 33021
EXTT0=
EXTT1=
EXTT2=
EXTT3=
EXTT4=
EXTT5=
EXTT6=
EXTT7=
EXTT8=
EXTT9=
EXTT10=
EXTT11=
EXTT12=
EXTT13=
EXTT14=
PLAYORDER=
